# Blender v2.83.10 OBJ File: ''
# www.blender.org
mtllib uAV.mtl
o PickUP_UAV_LOD0
v 0.766740 -2.174818 1.592625
v 0.747664 -2.755777 1.588796
v 0.000000 -2.873424 1.827227
v 0.000000 -2.172394 1.808313
v 0.789768 -2.789704 -1.467075
v 0.810207 -2.209322 -1.478365
v 0.810207 -2.209322 -1.478365
v 0.000000 -2.212138 -1.728933
v 0.000000 -2.913056 -1.700072
v 0.789768 -2.789704 -1.467075
v -0.789768 -2.789704 -1.467075
v -0.810207 -2.209322 -1.478365
v 0.000000 -2.913056 -1.700072
v 0.000000 -2.873424 1.827227
v 0.747664 -2.755777 1.588796
v 0.789768 -2.789704 -1.467075
v -0.766739 -2.174818 1.592625
v 0.000000 -2.172394 1.808313
v 0.000000 -2.873424 1.827227
v -0.747663 -2.755777 1.588796
v -0.789768 -2.789704 -1.467075
v -0.810207 -2.209322 -1.478365
v 0.000000 -2.873424 1.827227
v 0.000000 -2.913056 -1.700072
v -0.789768 -2.789704 -1.467075
v -0.747663 -2.755777 1.588796
v 1.318869 0.013197 1.089599
v 1.318869 -0.007261 -0.731140
v 1.295569 -0.085292 -0.629560
v 1.295569 -0.067097 0.989798
v 0.470237 -1.972091 -0.763981
v 0.470237 -1.970877 -0.655933
v 0.470237 -1.972091 -0.763981
v 1.318869 -0.007261 -0.731140
v 1.178657 -0.007261 -0.731140
v 0.355369 -1.841669 -0.762993
v 0.355369 -1.840458 -0.655217
v 0.355369 -1.841669 -0.762993
v 1.178657 -0.007261 -0.731140
v 1.155220 -0.085292 -0.629560
v 1.155220 -0.067097 0.989798
v 1.178657 0.013197 1.089599
v 0.470237 -1.970877 -0.655933
v 0.355369 -1.840458 -0.655217
v 1.155220 -0.085292 -0.629560
v 1.295569 -0.085292 -0.629560
v 1.295569 -0.085292 -0.629560
v 1.155220 -0.085292 -0.629560
v 1.155220 -0.067097 0.989798
v 1.295569 -0.067097 0.989798
v 1.318869 0.013197 1.089599
v 0.470237 -1.950373 1.168894
v 0.355369 -1.820015 1.164295
v 1.178657 0.013197 1.089599
v 1.178657 0.013197 1.089599
v 0.355369 -1.820015 1.164295
v 0.355369 -1.821227 1.056384
v 1.155220 -0.067097 0.989798
v 1.295569 -0.067097 0.989798
v 1.155220 -0.067097 0.989798
v 0.355369 -1.821227 1.056384
v 0.470237 -1.951587 1.060846
v 1.318869 0.013197 1.089599
v 1.295569 -0.067097 0.989798
v 0.470237 -1.951587 1.060846
v 0.470237 -1.950373 1.168894
v 0.540956 -1.794713 -0.889297
v 0.000000 -1.796686 -1.064926
v 0.000000 -2.207810 -1.222468
v 0.682803 -2.293391 -1.040813
v 0.538367 -1.769951 1.314583
v 0.680078 -2.266263 1.446345
v 0.000000 -1.766843 1.591176
v 0.000000 -2.184790 1.663189
v 0.000000 -1.796686 -1.064926
v -0.540955 -1.794713 -0.889297
v -0.682803 -2.293391 -1.040813
v 0.000000 -2.207810 -1.222468
v -0.680078 -2.266921 1.387757
v -0.538366 -1.769951 1.314583
v 0.000000 -2.184790 1.663189
v 0.000000 -1.766843 1.591176
v -1.295568 -0.085292 -0.629560
v -1.318869 -0.007261 -0.731140
v -1.318869 0.013197 1.089599
v -1.295568 -0.067097 0.989798
v -0.470236 -1.972091 -0.763981
v -0.470236 -1.970877 -0.655933
v -0.470236 -1.972091 -0.763981
v -0.355368 -1.841669 -0.762993
v -1.178656 -0.007261 -0.731140
v -1.318869 -0.007261 -0.731140
v -0.355368 -1.840458 -0.655217
v -1.155356 -0.085292 -0.629560
v -1.178656 -0.007261 -0.731140
v -0.355368 -1.841669 -0.762993
v -1.155356 -0.067097 0.989798
v -1.178656 0.013197 1.089599
v -0.470236 -1.970877 -0.655933
v -1.295568 -0.085292 -0.629560
v -1.155356 -0.085292 -0.629560
v -0.355368 -1.840458 -0.655217
v -1.155356 -0.067097 0.989798
v -1.155356 -0.085292 -0.629560
v -1.295568 -0.085292 -0.629560
v -1.295568 -0.067097 0.989798
v -1.318869 0.013197 1.089599
v -1.178656 0.013197 1.089599
v -0.355368 -1.820015 1.164295
v -0.470236 -1.950373 1.168894
v -1.178656 0.013197 1.089599
v -1.155356 -0.067097 0.989798
v -0.355368 -1.821227 1.056384
v -0.355368 -1.820015 1.164295
v -1.295568 -0.067097 0.989798
v -0.470236 -1.951587 1.060846
v -0.355368 -1.821227 1.056384
v -1.155356 -0.067097 0.989798
v -1.318869 0.013197 1.089599
v -0.470236 -1.950373 1.168894
v -0.470236 -1.951587 1.060846
v -1.295568 -0.067097 0.989798
v -3.369050 -2.954268 -2.578547
v -1.066377 -2.939488 -1.263031
v -0.896733 -2.944515 -1.710484
v -3.107837 -2.959296 -3.025999
v -3.107837 -2.959296 -3.025999
v -0.896733 -2.944515 -1.710484
v -0.896733 -2.733324 -1.712857
v -3.107837 -2.748105 -3.028372
v -1.066377 -2.939488 -1.263031
v -3.369050 -2.954268 -2.578547
v -3.369050 -2.743078 -2.580920
v -1.066377 -2.728297 -1.265404
v 3.456393 -2.954097 -2.563287
v 3.270261 -2.958984 -2.998204
v 0.974538 -2.944515 -1.710484
v 1.144047 -2.939488 -1.263031
v 3.270261 -2.958984 -2.998204
v 3.270261 -2.747793 -3.000577
v 0.974538 -2.733324 -1.712857
v 0.974538 -2.944515 -1.710484
v 1.144047 -2.939488 -1.263031
v 1.144047 -2.728297 -1.265404
v 3.456393 -2.742906 -2.565660
v 3.456393 -2.954097 -2.563287
v 3.146264 -3.017076 2.128361
v 0.988982 -3.027818 1.172279
v 0.867710 -3.022539 1.642077
v 2.808473 -3.012808 2.508233
v 2.808473 -3.012808 2.508233
v 0.867710 -3.022539 1.642077
v 0.867710 -2.811348 1.639704
v 2.808473 -2.801616 2.505860
v 0.988982 -3.027818 1.172279
v 3.146264 -3.017076 2.128361
v 3.146264 -2.805884 2.125988
v 0.988982 -2.816627 1.169906
v -3.144901 -3.016407 2.187904
v -2.807110 -3.012139 2.567775
v -0.866346 -3.021869 1.701755
v -0.987619 -3.027149 1.231821
v -2.807110 -3.012139 2.567775
v -2.807110 -2.800947 2.565402
v -0.866346 -2.810678 1.699383
v -0.866346 -3.021869 1.701755
v -0.987619 -3.027149 1.231821
v -0.987619 -2.815958 1.229449
v -3.144901 -2.805215 2.185531
v -3.144901 -3.016407 2.187904
v 3.345886 -3.250070 2.530930
v 3.345886 -2.774549 2.525587
v 3.218346 -2.780460 1.999517
v 3.218346 -3.255981 2.004860
v 2.833000 -2.773113 2.653392
v 2.833000 -3.248634 2.658735
v 2.705596 -3.254545 2.132665
v 2.705596 -2.779024 2.127322
v 2.833000 -2.773113 2.653392
v 2.833000 -3.248634 2.658735
v 3.218346 -2.780460 1.999517
v 3.218346 -3.255981 2.004860
v 2.833000 -3.248634 2.658735
v 3.345886 -3.250070 2.530930
v 3.218346 -3.255981 2.004860
v 2.705596 -3.254545 2.132665
v -3.488959 -3.156117 1.299497
v -3.773472 -3.156201 0.503685
v -3.649066 -3.150292 1.357074
v -3.122417 -3.121442 2.457262
v -3.018859 -3.145955 2.410116
v -3.328853 -3.100764 1.241370
v -2.915437 -3.122507 2.362431
v -2.548759 -3.131162 3.520546
v -2.264246 -3.113364 4.316296
v -2.388653 -3.126630 3.462989
v -2.915437 -3.122507 2.362431
v -3.018859 -3.145955 2.410116
v -2.708866 -3.074515 3.577551
v -3.122417 -3.121442 2.457262
v -3.804812 -3.074733 -1.741862
v -3.958106 -3.070250 -1.815907
v -4.170945 -3.057182 -0.980313
v -3.319178 -3.065441 -2.855424
v -3.221206 -3.088906 -2.797109
v -3.651655 -3.017765 -1.668508
v -3.123371 -3.064138 -2.739473
v -2.637601 -3.098448 -3.852546
v -2.484444 -3.092302 -3.778620
v -2.271468 -3.098013 -4.614297
v -3.123371 -3.064138 -2.739473
v -3.221206 -3.088906 -2.797109
v -2.790895 -3.043143 -3.927161
v -3.319178 -3.065441 -2.855424
v 3.892292 -3.074561 -1.726601
v 4.258425 -3.057011 -0.965052
v 4.045449 -3.070078 -1.800646
v 3.406658 -3.065270 -2.840164
v 3.308687 -3.088734 -2.781849
v 3.738998 -3.017594 -1.653247
v 3.210715 -3.063967 -2.724213
v 2.725081 -3.098276 -3.837286
v 2.358948 -3.097842 -4.599037
v 2.571788 -3.092131 -3.763360
v 3.210715 -3.063967 -2.724213
v 3.308687 -3.088734 -2.781849
v 2.878239 -3.042970 -3.911765
v 3.406658 -3.065270 -2.840164
v 3.490322 -3.156786 1.239955
v 3.650429 -3.150962 1.297395
v 3.774835 -3.156872 0.444006
v 3.123644 -3.122111 2.397720
v 3.020222 -3.146626 2.350437
v 3.330216 -3.101433 1.181827
v 2.916801 -3.123178 2.302752
v 2.550122 -3.131831 3.461003
v 2.390016 -3.127299 3.403447
v 2.265610 -3.114033 4.256753
v 2.916801 -3.123178 2.302752
v 3.020222 -3.146626 2.350437
v 2.710229 -3.075185 3.517873
v 3.123644 -3.122111 2.397720
v 3.083039 -3.307101 -2.544876
v 3.083039 -2.673664 -2.551993
v 3.587068 -2.671447 -2.354700
v 3.587068 -3.304884 -2.347583
v 3.272441 -2.679207 -3.045362
v 3.272441 -3.312644 -3.038245
v 3.776470 -3.310427 -2.840952
v 3.776470 -2.676991 -2.848069
v 3.272441 -2.679207 -3.045362
v 3.272441 -3.312644 -3.038245
v 3.587068 -2.671447 -2.354700
v 3.587068 -3.304884 -2.347583
v 3.272441 -3.312644 -3.038245
v 3.083039 -3.307101 -2.544876
v 3.587068 -3.304884 -2.347583
v 3.776470 -3.310427 -2.840952
v -3.423826 -3.249562 2.576166
v -3.423826 -2.774041 2.570823
v -2.938874 -2.771339 2.811308
v -2.938874 -3.246860 2.816651
v -3.192183 -2.779378 2.095848
v -3.192183 -3.254899 2.101190
v -2.707231 -3.252197 2.341676
v -2.707231 -2.776676 2.336333
v -3.192183 -2.779378 2.095848
v -3.192183 -3.254899 2.101190
v -2.938874 -2.771339 2.811308
v -2.938874 -3.246860 2.816651
v -3.192183 -3.254899 2.101190
v -3.423826 -3.249562 2.576166
v -2.938874 -3.246860 2.816651
v -2.707231 -3.252197 2.341676
v -3.582434 -3.311644 -2.949273
v -3.582434 -2.678208 -2.956390
v -3.409655 -2.672444 -2.443400
v -3.409655 -3.305880 -2.436283
v -3.082766 -2.680141 -3.128476
v -3.082766 -3.313578 -3.121359
v -2.909850 -3.307814 -2.608369
v -2.909850 -2.674377 -2.615486
v -3.082766 -2.680141 -3.128476
v -3.082766 -3.313578 -3.121359
v -3.409655 -2.672444 -2.443400
v -3.409655 -3.305880 -2.436283
v -3.082766 -3.313578 -3.121359
v -3.582434 -3.311644 -2.949273
v -3.409655 -3.305880 -2.436283
v -2.909850 -3.307814 -2.608369
v 0.841139 -3.073545 1.783961
v 0.841139 -2.174689 1.773862
v 1.233161 -2.178885 1.400395
v 1.233161 -3.077742 1.410494
v 0.474052 -2.178962 1.393582
v 0.474052 -3.077818 1.403681
v 0.865938 -3.082013 1.030350
v 0.865938 -2.183156 1.020251
v 0.474052 -2.178962 1.393582
v 0.474052 -3.077818 1.403681
v 1.233161 -2.178885 1.400395
v 1.233161 -3.077742 1.410494
v 0.474052 -3.077818 1.403681
v 0.841139 -3.073545 1.783961
v 1.233161 -3.077742 1.410494
v 0.865938 -3.082013 1.030350
v -0.848223 -3.072876 1.843504
v -0.848223 -2.174020 1.833404
v -0.456337 -2.178216 1.459937
v -0.456337 -3.077073 1.470036
v -1.215446 -2.178291 1.453260
v -1.215310 -3.077147 1.463360
v -0.823424 -3.081344 1.089892
v -0.823424 -2.182487 1.079793
v -1.215446 -2.178291 1.453260
v -1.215310 -3.077147 1.463360
v -0.456337 -2.178216 1.459937
v -0.456337 -3.077073 1.470036
v -1.215310 -3.077147 1.463360
v -0.848223 -3.072876 1.843504
v -0.456337 -3.077073 1.470036
v -0.823424 -3.081344 1.089892
v 0.884742 -3.104793 -0.997084
v 0.884742 -2.205936 -1.007183
v 1.276628 -2.210132 -1.380650
v 1.276628 -3.108989 -1.370551
v 0.517519 -2.210209 -1.387463
v 0.517519 -3.109065 -1.377364
v 0.909542 -3.113260 -1.750695
v 0.909542 -2.214403 -1.760794
v 0.517519 -2.210209 -1.387463
v 0.517519 -3.109065 -1.377364
v 1.276628 -2.210132 -1.380650
v 1.276628 -3.108989 -1.370551
v 0.517519 -3.109065 -1.377364
v 0.884742 -3.104793 -0.997084
v 1.276628 -3.108989 -1.370551
v 0.909542 -3.113260 -1.750695
v -0.906816 -3.105882 -1.094096
v -0.906816 -2.207026 -1.104195
v -0.514929 -2.211222 -1.477662
v -0.514929 -3.110079 -1.467563
v -1.274039 -2.211298 -1.484475
v -1.274039 -3.110155 -1.474375
v -0.882152 -3.114350 -1.847707
v -0.882152 -2.215493 -1.857806
v -1.274039 -2.211298 -1.484475
v -1.274039 -3.110155 -1.474375
v -0.514929 -2.211222 -1.477662
v -0.514929 -3.110079 -1.467563
v -1.274039 -3.110155 -1.474375
v -0.906816 -3.105882 -1.094096
v -0.514929 -3.110079 -1.467563
v -0.882152 -3.114350 -1.847707
vt 1.004859 0.828665
vt 1.171319 0.804329
vt 1.171319 0.689462
vt 1.004859 0.663179
vt 1.898484 0.804329
vt 1.899458 0.689462
vt 0.805302 0.550259
vt 0.805302 0.381853
vt 0.919196 0.382826
vt 0.919196 0.523976
vt 0.678754 0.520082
vt 0.678754 0.382826
vt 1.173266 0.817957
vt 1.132381 0.990258
vt 1.981227 0.990258
vt 1.911139 0.818931
vt 0.004155 0.828665
vt 0.004155 0.663179
vt 0.170614 0.689462
vt 0.170614 0.804329
vt 0.898753 0.804329
vt 0.898753 0.689462
vt 0.909461 0.822825
vt 0.981497 0.990258
vt 0.131676 0.990258
vt 0.170614 0.818931
vt 1.066186 0.051854
vt 1.040877 0.032385
vt 1.040877 0.032385
vt 1.066186 0.051854
vt 1.040877 0.520082
vt 1.066186 0.520082
vt 1.128487 0.147252
vt 1.160611 0.137517
vt 1.160611 0.623268
vt 1.128487 0.602825
vt 1.003886 0.003181
vt 1.003886 0.477250
vt 1.029195 0.477250
vt 1.029195 0.022650
vt 1.029195 0.022650
vt 1.003886 0.003181
vt 1.079815 0.100526
vt 1.079815 0.548312
vt 1.114859 0.564861
vt 1.114859 0.090792
vt 0.128756 0.581409
vt 0.128756 0.190083
vt 0.160880 0.190083
vt 0.160880 0.581409
vt 1.128487 0.602825
vt 1.160611 0.623268
vt 1.160611 0.137517
vt 1.128487 0.147252
vt 1.029195 0.477250
vt 1.003886 0.477250
vt 1.003886 0.003181
vt 1.029195 0.022650
vt 1.079815 0.548312
vt 1.079815 0.100526
vt 1.114859 0.090792
vt 1.114859 0.564861
vt 1.066186 0.520082
vt 1.066186 0.051854
vt 1.040877 0.032385
vt 1.040877 0.520082
vt 1.974413 0.625215
vt 1.974413 0.571675
vt 1.833263 0.571675
vt 1.865387 0.675834
vt 1.379637 0.571675
vt 1.355300 0.675834
vt 1.250168 0.571675
vt 1.250168 0.628135
vt 0.865656 0.675834
vt 0.833532 0.571675
vt 0.974682 0.571675
vt 0.974682 0.625215
vt 0.355570 0.675834
vt 0.378932 0.571675
vt 0.250437 0.628135
vt 0.250437 0.571675
vt 0.260172 0.032385
vt 0.041146 0.032385
vt 0.066455 0.051854
vt 0.235835 0.051854
vt 0.041146 0.520082
vt 0.066455 0.520082
vt 0.128756 0.147252
vt 0.128756 0.602825
vt 0.160880 0.623268
vt 0.160880 0.137517
vt 0.004155 0.003181
vt 0.028491 0.022650
vt 0.028491 0.477250
vt 0.004155 0.477250
vt 0.200791 0.022650
vt 0.225127 0.004155
vt 1.079815 0.100526
vt 1.114859 0.090792
vt 1.114859 0.564861
vt 1.079815 0.548312
vt 0.160880 0.190083
vt 0.128756 0.190083
vt 0.128756 0.582383
vt 0.160880 0.582383
vt 1.128487 0.602825
vt 1.128487 0.147252
vt 1.160611 0.137517
vt 1.160611 0.623268
vt 1.029195 0.477250
vt 1.029195 0.022650
vt 1.003886 0.003181
vt 1.003886 0.477250
vt 0.079110 0.548312
vt 0.114154 0.564861
vt 0.114154 0.090792
vt 0.079110 0.100526
vt 1.066186 0.520082
vt 1.040877 0.520082
vt 1.040877 0.032385
vt 1.066186 0.051854
vt 1.564592 0.047960
vt 1.564592 0.138491
vt 1.995829 0.138491
vt 1.995829 0.047960
vt 1.564592 0.006102
vt 1.564592 0.047960
vt 1.995829 0.047960
vt 1.995829 0.006102
vt 1.995829 0.179375
vt 1.995829 0.138491
vt 1.564592 0.138491
vt 1.564592 0.179375
vt 1.564592 0.047960
vt 1.995829 0.047960
vt 1.995829 0.138491
vt 1.564592 0.138491
vt 1.564592 0.006102
vt 1.995829 0.006102
vt 1.995829 0.047960
vt 1.564592 0.047960
vt 1.995829 0.179375
vt 1.564592 0.179375
vt 1.564592 0.138491
vt 1.995829 0.138491
vt 1.564592 0.047960
vt 1.564592 0.138491
vt 1.995829 0.138491
vt 1.995829 0.047960
vt 1.564592 0.006102
vt 1.564592 0.047960
vt 1.995829 0.047960
vt 1.995829 0.006102
vt 1.995829 0.179375
vt 1.995829 0.138491
vt 1.564592 0.138491
vt 1.564592 0.179375
vt 0.563887 0.047960
vt 0.996098 0.047960
vt 0.996098 0.138491
vt 0.563887 0.138491
vt 0.563887 0.006102
vt 0.996098 0.006102
vt 0.996098 0.047960
vt 0.563887 0.047960
vt 0.996098 0.179375
vt 0.563887 0.179375
vt 0.563887 0.138491
vt 0.996098 0.138491
vt 0.140438 0.064509
vt 0.213446 0.064509
vt 0.213446 0.119022
vt 0.140438 0.119022
vt 0.284508 0.064509
vt 0.284508 0.119022
vt 0.140438 0.064509
vt 0.213446 0.064509
vt 0.213446 0.119022
vt 0.140438 0.119022
vt 0.284508 0.064509
vt 0.284508 0.119022
vt 0.419817 0.371145
vt 0.276720 0.369198
vt 0.277694 0.229995
vt 0.420790 0.231942
vt 1.748573 0.371145
vt 1.579193 0.333180
vt 1.748573 0.333180
vt 1.983174 0.349729
vt 1.983174 0.333180
vt 1.748573 0.302030
vt 1.983174 0.315658
vt 0.748842 0.371145
vt 0.579463 0.333180
vt 0.748842 0.333180
vt 0.983443 0.349729
vt 0.983443 0.333180
vt 0.748842 0.302030
vt 0.983443 0.315658
vt 1.579193 0.333180
vt 1.748573 0.371145
vt 1.748573 0.333180
vt 1.983174 0.349729
vt 1.983174 0.333180
vt 1.748573 0.302030
vt 1.983174 0.315658
vt 1.579193 0.333180
vt 1.748573 0.371145
vt 1.748573 0.333180
vt 1.983174 0.349729
vt 1.983174 0.333180
vt 1.748573 0.302030
vt 1.983174 0.315658
vt 1.748573 0.371145
vt 1.579193 0.333180
vt 1.748573 0.333180
vt 1.983174 0.349729
vt 1.983174 0.333180
vt 1.748573 0.302030
vt 1.983174 0.315658
vt 1.748573 0.371145
vt 1.579193 0.333180
vt 1.748573 0.333180
vt 1.983174 0.349729
vt 1.983174 0.333180
vt 1.748573 0.302030
vt 1.983174 0.315658
vt 1.579193 0.333180
vt 1.748573 0.371145
vt 1.748573 0.333180
vt 1.983174 0.349729
vt 1.983174 0.333180
vt 1.748573 0.302030
vt 1.983174 0.315658
vt 1.579193 0.333180
vt 1.748573 0.371145
vt 1.748573 0.333180
vt 1.983174 0.349729
vt 1.983174 0.333180
vt 1.748573 0.302030
vt 1.983174 0.315658
vt 0.140438 0.064509
vt 0.213446 0.064509
vt 0.213446 0.119022
vt 0.140438 0.119022
vt 0.284508 0.064509
vt 0.284508 0.119022
vt 0.140438 0.064509
vt 0.213446 0.064509
vt 0.213446 0.119022
vt 0.140438 0.119022
vt 0.284508 0.064509
vt 0.284508 0.119022
vt 0.419817 0.371145
vt 0.276720 0.369198
vt 0.277694 0.229995
vt 0.420790 0.231942
vt 0.140438 0.064509
vt 0.213446 0.064509
vt 0.213446 0.119022
vt 0.140438 0.119022
vt 0.284508 0.064509
vt 0.284508 0.119022
vt 0.140438 0.064509
vt 0.213446 0.064509
vt 0.213446 0.119022
vt 0.140438 0.119022
vt 0.284508 0.064509
vt 0.284508 0.119022
vt 0.419817 0.371145
vt 0.276720 0.369198
vt 0.277694 0.229995
vt 0.420790 0.231942
vt 0.140438 0.064509
vt 0.213446 0.064509
vt 0.213446 0.119022
vt 0.140438 0.119022
vt 0.284508 0.064509
vt 0.284508 0.119022
vt 0.140438 0.064509
vt 0.213446 0.064509
vt 0.213446 0.119022
vt 0.140438 0.119022
vt 0.284508 0.064509
vt 0.284508 0.119022
vt 0.419817 0.371145
vt 0.276720 0.369198
vt 0.277694 0.229995
vt 0.420790 0.231942
vt 0.364331 0.009022
vt 0.456808 0.009022
vt 0.456808 0.156013
vt 0.364331 0.156013
vt 0.546365 0.009022
vt 0.546365 0.156013
vt 0.364331 0.009022
vt 0.456808 0.009022
vt 0.456808 0.156013
vt 0.364331 0.156013
vt 0.546365 0.009022
vt 0.546365 0.156013
vt 0.419817 0.371145
vt 0.276720 0.369198
vt 0.277694 0.229995
vt 0.420790 0.231942
vt 0.364331 0.009022
vt 0.456808 0.009022
vt 0.456808 0.156013
vt 0.364331 0.156013
vt 0.546365 0.009022
vt 0.546365 0.156013
vt 0.364331 0.009022
vt 0.456808 0.009022
vt 0.456808 0.156013
vt 0.364331 0.156013
vt 0.546365 0.009022
vt 0.546365 0.156013
vt 0.419817 0.371145
vt 0.276720 0.369198
vt 0.277694 0.229995
vt 0.420790 0.231942
vt 0.364331 0.009022
vt 0.456808 0.009022
vt 0.456808 0.156013
vt 0.364331 0.156013
vt 0.546365 0.009022
vt 0.546365 0.156013
vt 0.364331 0.009022
vt 0.456808 0.009022
vt 0.456808 0.156013
vt 0.364331 0.156013
vt 0.546365 0.009022
vt 0.546365 0.156013
vt 0.419817 0.371145
vt 0.276720 0.369198
vt 0.277694 0.229995
vt 0.420790 0.231942
vt 0.364331 0.009022
vt 0.456808 0.009022
vt 0.456808 0.156013
vt 0.364331 0.156013
vt 0.546365 0.009022
vt 0.546365 0.156013
vt 0.364331 0.009022
vt 0.456808 0.009022
vt 0.456808 0.156013
vt 0.364331 0.156013
vt 0.546365 0.009022
vt 0.546365 0.156013
vt 0.419817 0.371145
vt 0.276720 0.369198
vt 0.277694 0.229995
vt 0.420790 0.231942
vn 0.0038 0.0072 1.0000
vn 0.7724 -0.0126 0.6350
vn 0.7959 -0.0129 0.6053
vn 0.7880 -0.0423 -0.6142
vn 0.8116 -0.0419 -0.5827
vn 0.0037 -0.0388 -0.9992
vn 0.0038 -0.0388 -0.9992
vn 0.8116 -0.0419 -0.5828
vn -0.7804 -0.0424 -0.6238
vn -0.8118 -0.0420 -0.5825
vn 0.1528 -0.9833 0.0993
vn 0.0038 -0.9999 0.0116
vn -0.7961 -0.0129 0.6050
vn -0.7726 -0.0126 0.6348
vn -0.8118 -0.0419 -0.5825
vn -0.1530 -0.9833 0.0989
vn 0.8115 -0.5843 0.0066
vn 0.9370 -0.3492 -0.0052
vn 0.9371 -0.3489 0.0131
vn 0.9135 -0.3971 -0.0880
vn 0.9135 -0.3972 -0.0881
vn 0.0038 0.0161 -0.9999
vn -0.9346 0.3557 -0.0040
vn -0.9118 0.4106 -0.0046
vn -0.9118 0.4107 -0.0046
vn -0.9373 0.3418 0.0686
vn -0.9373 0.3402 -0.0763
vn -0.0040 -0.0163 0.9999
vn 0.8115 -0.5843 0.0063
vn 0.0038 0.0387 0.9992
vn 0.0039 0.0387 0.9992
vn 0.0038 0.0386 0.9992
vn -0.9118 0.4107 -0.0047
vn -0.0040 -0.0388 -0.9992
vn 0.9135 -0.3951 0.0969
vn 0.9370 -0.3490 0.0131
vn 0.9135 -0.3951 0.0970
vn 0.0038 0.3620 -0.9322
vn 0.7645 0.3744 -0.5247
vn 0.7567 0.3742 -0.5361
vn 0.8037 0.3154 0.5046
vn 0.7959 0.3155 0.5167
vn -0.0197 0.2500 0.9681
vn -0.0197 0.2500 0.9680
vn -0.7490 0.3741 -0.5468
vn -0.7647 0.3744 -0.5244
vn 0.0038 0.3619 -0.9322
vn -0.8275 0.2838 0.4846
vn -0.8039 0.2842 0.5224
vn -0.9371 -0.3490 0.0039
vn -0.8116 -0.5842 0.0066
vn -0.9137 -0.3971 -0.0860
vn -0.0040 0.0161 -0.9999
vn 0.9346 0.3558 -0.0040
vn 0.9370 0.3419 0.0713
vn 0.9117 0.4108 -0.0046
vn 0.9370 0.3402 -0.0789
vn 0.0038 -0.0163 0.9999
vn -0.8116 -0.5842 0.0065
vn -0.0040 0.0386 0.9992
vn -0.0039 0.0387 0.9992
vn 0.9117 0.4107 -0.0046
vn -0.9142 -0.3940 0.0948
vn -0.9137 -0.3951 0.0949
vn 0.5136 -0.0058 -0.8580
vn -0.4981 0.0136 0.8670
vn -0.4902 -0.0060 -0.8716
vn 0.4900 0.0136 0.8716
vn -0.4040 0.0141 0.9147
vn 0.4038 -0.0065 -0.9148
vn 0.4038 0.0141 0.9148
vn 0.4038 0.0141 0.9147
vn -0.4040 -0.0065 -0.9147
vn -0.4040 -0.0064 -0.9147
vn 0.5214 -0.0058 -0.8533
vn 0.8586 0.0096 0.5125
vn 0.7018 -0.5718 0.4249
vn 0.4194 -0.5844 -0.6947
vn -0.5216 0.0134 0.8531
vn -0.4197 -0.5686 0.7075
vn -0.8588 -0.0019 -0.5123
vn -0.7020 -0.5812 -0.4117
vn 0.5214 -0.0057 -0.8533
vn 0.4195 -0.5844 -0.6947
vn -0.7020 -0.5812 -0.4116
vn -0.0666 -0.9977 0.0112
vn 0.1369 -0.9905 0.0112
vn 0.1057 -0.9928 -0.0556
vn -0.1687 -0.9837 0.0627
vn 0.2704 -0.9544 -0.1263
vn 0.1685 -0.9848 -0.0413
vn 0.0664 -0.9977 0.0112
vn -0.1371 -0.9905 0.0111
vn -0.1060 -0.9913 0.0775
vn -0.2707 -0.9513 0.1473
vn -0.1687 -0.9837 0.0628
vn 0.1292 -0.9916 0.0112
vn -0.0588 -0.9982 0.0112
vn 0.0979 -0.9912 0.0889
vn -0.1609 -0.9851 -0.0615
vn 0.2548 -0.9510 0.1750
vn 0.1607 -0.9834 0.0840
vn -0.1294 -0.9915 0.0111
vn 0.0586 -0.9982 0.0112
vn -0.0981 -0.9930 -0.0664
vn -0.2550 -0.9547 -0.1533
vn -0.1294 -0.9915 0.0112
vn -0.0981 -0.9912 0.0886
vn 0.1607 -0.9851 -0.0619
vn -0.2550 -0.9510 0.1747
vn -0.1609 -0.9834 0.0836
vn 0.1292 -0.9916 0.0111
vn 0.0979 -0.9930 -0.0666
vn 0.2548 -0.9547 -0.1536
vn -0.1371 -0.9905 0.0112
vn -0.1060 -0.9928 -0.0552
vn 0.1685 -0.9837 0.0634
vn -0.2707 -0.9544 -0.1258
vn -0.1687 -0.9848 -0.0406
vn 0.1369 -0.9905 0.0111
vn 0.1058 -0.9913 0.0779
vn -0.1687 -0.9848 -0.0407
vn 0.2704 -0.9513 0.1477
vn -0.9137 0.0084 0.4063
vn -0.7490 -0.5728 0.3329
vn 0.3332 -0.5681 0.7525
vn -0.3334 -0.5849 -0.7394
vn 0.9135 -0.0007 -0.4068
vn 0.7488 -0.5801 -0.3204
vn -0.3334 -0.5848 -0.7395
vn 0.3331 -0.5681 0.7525
vn -0.3334 -0.5849 -0.7395
vn 0.7488 -0.5802 -0.3204
vn 0.3254 0.0145 0.9455
vn -0.9451 0.0075 0.3267
vn -0.7726 -0.5735 0.2725
vn 0.2626 -0.5678 0.7802
vn -0.3256 -0.0068 -0.9455
vn -0.2628 -0.5851 -0.7672
vn 0.9449 0.0001 -0.3274
vn 0.7723 -0.5795 -0.2602
vn -0.2629 -0.5851 -0.7671
vn 0.3253 0.0145 0.9455
vn 0.2626 -0.5677 0.7802
vn 0.2627 -0.5678 0.7801
vn -0.7726 -0.5735 0.2724
vn -0.2628 -0.5852 -0.7671
vn -0.4432 0.0139 0.8963
vn -0.8980 -0.0011 -0.4399
vn -0.7334 -0.5805 -0.3537
vn -0.3569 -0.5682 0.7414
vn 0.4430 -0.0062 -0.8965
vn 0.3567 -0.5848 -0.7286
vn 0.8978 0.0088 0.4402
vn 0.7331 -0.5724 0.3672
vn 0.3567 -0.5848 -0.7285
vn -0.7334 -0.5805 -0.3538
vn 0.9998 0.0041 0.0204
vn -0.0197 0.0151 0.9997
vn -0.0197 -0.5673 0.8233
vn 0.8179 -0.5754 0.0065
vn -1.0000 0.0039 0.0003
vn -0.8179 -0.5753 0.0065
vn -1.0000 0.0038 0.0003
vn 0.0195 -0.0074 -0.9998
vn 0.0195 -0.5856 -0.8103
vn 0.8179 -0.5753 0.0065
vn 0.8179 -0.5754 0.0064
vn -0.0198 -0.5673 0.8233
vn 0.8179 -0.5753 0.0064
vn -0.8179 -0.5753 0.0064
vn 0.0196 -0.5857 -0.8103
vn 0.8178 -0.5754 0.0064
vn 0.0195 -0.5857 -0.8103
vn -0.0197 0.0150 0.9997
vn -0.8180 -0.5752 0.0065
vn -0.0196 -0.5673 0.8233
vn 0.0194 -0.5856 -0.8103
vn 0.8178 -0.5754 0.0065
usemtl PickUp_UAV_D
s 1
f 3/1/1 2/2/2 1/3/3
f 4/4/1 3/1/1 1/3/3
f 1/3/3 2/2/2 5/5/4
f 6/6/5 1/3/3 5/5/4
f 9/7/6 8/8/7 7/9/8
f 10/10/4 9/7/6 7/9/8
f 9/7/6 11/11/9 8/8/7
f 11/11/9 12/12/10 8/8/7
f 15/13/11 14/14/12 13/15/12
f 16/16/11 15/13/11 13/15/12
f 19/17/1 18/18/1 17/19/13
f 20/20/14 19/17/1 17/19/13
f 20/20/14 17/19/13 21/21/9
f 17/19/13 22/22/15 21/21/9
f 25/23/16 24/24/12 23/25/12
f 26/26/16 25/23/16 23/25/12
f 29/27/17 28/28/18 27/29/19
f 30/30/17 29/27/17 27/29/19
f 28/28/18 29/27/17 31/31/20
f 29/27/17 32/32/21 31/31/20
f 35/33/22 34/34/22 33/35/22
f 36/36/22 35/33/22 33/35/22
f 39/37/23 38/38/24 37/39/25
f 40/40/26 39/37/23 37/39/25
f 39/37/23 40/40/26 41/41/27
f 42/42/23 39/37/23 41/41/27
f 45/43/28 44/44/28 43/45/28
f 46/46/28 45/43/28 43/45/28
f 49/47/12 48/48/12 47/49/17
f 50/50/29 49/47/12 47/49/17
f 53/51/30 52/52/31 51/53/32
f 54/54/32 53/51/30 51/53/32
f 57/55/33 56/56/24 55/57/23
f 58/58/27 57/55/33 55/57/23
f 61/59/34 60/60/34 59/61/34
f 62/62/34 61/59/34 59/61/34
f 65/63/35 64/64/17 63/65/36
f 66/66/37 65/63/35 63/65/36
f 69/67/38 68/68/38 67/69/39
f 70/70/40 69/67/38 67/69/39
f 67/69/39 71/71/41 70/70/40
f 71/71/41 72/72/42 70/70/40
f 72/72/42 71/71/41 73/73/43
f 74/74/44 72/72/42 73/73/43
f 77/75/45 76/76/46 75/77/47
f 78/78/47 77/75/45 75/77/47
f 76/76/46 77/75/45 79/79/48
f 80/80/49 76/76/46 79/79/48
f 79/79/48 81/81/43 80/80/49
f 81/81/43 82/82/44 80/80/49
f 85/83/50 84/84/50 83/85/51
f 86/86/51 85/83/50 83/85/51
f 83/85/51 84/84/50 87/87/52
f 88/88/52 83/85/51 87/87/52
f 91/89/53 90/90/53 89/91/53
f 92/92/53 91/89/53 89/91/53
f 95/93/54 94/94/55 93/95/56
f 96/96/56 95/93/54 93/95/56
f 97/97/57 94/94/55 95/93/54
f 98/98/54 97/97/57 95/93/54
f 101/99/58 100/100/58 99/101/58
f 102/102/58 101/99/58 99/101/58
f 105/103/51 104/104/12 103/105/12
f 106/106/59 105/103/51 103/105/12
f 109/107/60 108/108/60 107/109/60
f 110/110/61 109/107/60 107/109/60
f 113/111/56 112/112/57 111/113/54
f 114/114/62 113/111/56 111/113/54
f 117/115/7 116/116/7 115/117/7
f 118/118/7 117/115/7 115/117/7
f 121/119/63 120/120/64 119/121/50
f 122/122/51 121/119/63 119/121/50
f 125/123/12 124/124/12 123/125/12
f 126/126/12 125/123/12 123/125/12
f 129/127/65 128/128/65 127/129/65
f 130/130/65 129/127/65 127/129/65
f 133/131/66 132/132/66 131/133/66
f 134/134/66 133/131/66 131/133/66
f 137/135/12 136/136/12 135/137/12
f 138/138/12 137/135/12 135/137/12
f 141/139/67 140/140/67 139/141/67
f 142/142/67 141/139/67 139/141/67
f 145/143/68 144/144/68 143/145/68
f 146/146/68 145/143/68 143/145/68
f 149/147/12 148/148/12 147/149/12
f 150/150/12 149/147/12 147/149/12
f 153/151/69 152/152/69 151/153/69
f 154/154/69 153/151/69 151/153/69
f 157/155/70 156/156/70 155/157/70
f 158/158/70 157/155/70 155/157/70
f 161/159/12 160/160/12 159/161/12
f 162/162/12 161/159/12 159/161/12
f 165/163/71 164/164/72 163/165/71
f 166/166/72 165/163/71 163/165/71
f 169/167/73 168/168/73 167/169/73
f 170/170/74 169/167/73 167/169/73
f 173/171/75 172/172/76 171/173/77
f 174/174/78 173/171/75 171/173/77
f 172/172/76 175/175/79 171/173/77
f 175/175/79 176/176/80 171/173/77
f 179/177/79 178/178/81 177/179/82
f 180/180/80 179/177/79 177/179/82
f 178/178/81 181/181/83 177/179/82
f 181/181/83 182/182/84 177/179/82
f 185/183/78 184/184/77 183/185/80
f 186/186/85 185/183/78 183/185/80
f 189/187/86 188/188/87 187/189/88
f 190/190/89 189/187/86 187/189/88
f 191/191/12 190/190/89 187/189/88
f 187/189/88 192/192/90 191/191/12
f 192/192/90 187/189/88 188/188/87
f 192/192/90 193/193/91 191/191/12
f 196/194/92 195/195/93 194/196/94
f 197/197/91 196/194/92 194/196/94
f 198/198/12 197/197/91 194/196/94
f 194/196/94 199/199/95 198/198/12
f 199/199/95 194/196/94 195/195/93
f 199/199/95 200/200/96 198/198/12
f 203/201/97 202/202/98 201/203/99
f 202/202/98 204/204/100 201/203/99
f 204/204/100 205/205/12 201/203/99
f 206/206/101 201/203/99 205/205/12
f 201/203/99 206/206/101 203/201/97
f 207/207/102 206/206/101 205/205/12
f 210/208/103 209/209/104 208/210/105
f 209/209/104 211/211/102 208/210/105
f 211/211/102 212/212/12 208/210/105
f 213/213/106 208/210/105 212/212/12
f 208/210/105 213/213/106 210/208/103
f 214/214/100 213/213/106 212/212/12
f 217/215/104 216/216/107 215/217/108
f 218/218/109 217/215/104 215/217/108
f 219/219/12 218/218/109 215/217/108
f 215/217/108 220/220/110 219/219/12
f 220/220/110 215/217/108 216/216/107
f 220/220/110 221/221/111 219/219/12
f 224/222/98 223/223/112 222/224/113
f 225/225/111 224/222/98 222/224/113
f 226/226/12 225/225/111 222/224/113
f 222/224/113 227/227/114 226/226/12
f 227/227/114 222/224/113 223/223/112
f 227/227/114 228/228/109 226/226/12
f 231/229/115 230/230/92 229/231/116
f 230/230/92 232/232/117 229/231/116
f 232/232/117 233/233/12 229/231/116
f 234/234/118 229/231/116 233/233/12
f 229/231/116 234/234/118 231/229/115
f 235/235/119 234/234/118 233/233/12
f 238/236/120 237/237/86 236/238/121
f 237/237/86 239/239/122 236/238/121
f 239/239/122 240/240/12 236/238/121
f 241/241/123 236/238/121 240/240/12
f 236/238/121 241/241/123 238/236/120
f 242/242/117 241/241/123 240/240/12
f 245/243/72 244/244/124 243/245/125
f 246/246/126 245/243/72 243/245/125
f 244/244/124 247/247/74 243/245/125
f 247/247/74 248/248/127 243/245/125
f 251/249/74 250/250/128 249/251/129
f 252/252/130 251/249/74 249/251/129
f 250/250/128 253/253/72 249/251/129
f 253/253/72 254/254/126 249/251/129
f 257/255/131 256/256/125 255/257/132
f 258/258/133 257/255/131 255/257/132
f 261/259/134 260/260/135 259/261/136
f 262/262/137 261/259/134 259/261/136
f 260/260/135 263/263/138 259/261/136
f 263/263/138 264/264/139 259/261/136
f 267/265/138 266/266/140 265/267/141
f 268/268/142 267/265/138 265/267/141
f 266/266/140 269/269/143 265/267/141
f 269/269/143 270/270/144 265/267/141
f 273/271/145 272/272/146 271/273/147
f 274/274/141 273/271/145 271/273/147
f 277/275/148 276/276/149 275/277/150
f 278/278/151 277/275/148 275/277/150
f 276/276/149 279/279/152 275/277/150
f 279/279/152 280/280/153 275/277/150
f 283/281/152 282/282/154 281/283/155
f 284/284/156 283/281/152 281/283/155
f 282/282/154 285/285/148 281/283/155
f 285/285/148 286/286/151 281/283/155
f 289/287/151 288/288/157 287/289/153
f 290/290/155 289/287/151 287/289/153
f 293/291/158 292/292/159 291/293/160
f 294/294/161 293/291/158 291/293/160
f 292/292/159 295/295/162 291/293/160
f 295/295/162 296/296/163 291/293/160
f 299/297/164 298/298/165 297/299/166
f 300/300/163 299/297/164 297/299/166
f 298/298/165 301/301/158 297/299/166
f 301/301/158 302/302/167 297/299/166
f 305/303/168 304/304/169 303/305/163
f 306/306/166 305/303/168 303/305/163
f 309/307/158 308/308/159 307/309/160
f 310/310/170 309/307/158 307/309/160
f 308/308/159 311/311/164 307/309/160
f 311/311/164 312/312/171 307/309/160
f 315/313/164 314/314/165 313/315/172
f 316/316/163 315/313/164 313/315/172
f 314/314/165 317/317/158 313/315/172
f 317/317/158 318/318/161 313/315/172
f 321/319/173 320/320/160 319/321/163
f 322/322/174 321/319/173 319/321/163
f 325/323/158 324/324/175 323/325/160
f 326/326/170 325/323/158 323/325/160
f 324/324/175 327/327/162 323/325/160
f 327/327/162 328/328/171 323/325/160
f 331/329/164 330/330/165 329/331/166
f 332/332/176 331/329/164 329/331/166
f 330/330/165 333/333/158 329/331/166
f 333/333/158 334/334/161 329/331/166
f 337/335/173 336/336/160 335/337/163
f 338/338/166 337/335/173 335/337/163
f 341/339/158 340/340/175 339/341/177
f 342/342/170 341/339/158 339/341/177
f 340/340/175 343/343/162 339/341/177
f 343/343/162 344/344/171 339/341/177
f 347/345/164 346/346/165 345/347/178
f 348/348/163 347/345/164 345/347/178
f 346/346/165 349/349/158 345/347/178
f 349/349/158 350/350/167 345/347/178
f 353/351/179 352/352/160 351/353/171
f 354/354/174 353/351/179 351/353/171
o PickUP_UAV_LOD1
v 0.766830 -1.815289 1.588570
v 0.747600 -2.755836 1.588772
v -0.747693 -2.755836 1.588772
v -0.766787 -1.815289 1.588570
v 0.810199 -1.849657 -1.482426
v -0.810156 -1.849657 -1.482426
v -0.789835 -2.789761 -1.466953
v 0.789742 -2.789761 -1.466953
v 0.789742 -2.789761 -1.466953
v 0.747600 -2.755836 1.588772
v 0.766830 -1.815289 1.588570
v 0.810199 -1.849657 -1.482426
v 0.747600 -2.755836 1.588772
v 0.789742 -2.789761 -1.466953
v -0.789835 -2.789761 -1.466953
v -0.747693 -2.755836 1.588772
v -0.789835 -2.789761 -1.466953
v -0.810156 -1.849657 -1.482426
v -0.766787 -1.815289 1.588570
v -0.747693 -2.755836 1.588772
v 0.470335 -1.972112 -0.764044
v 1.318905 -0.003488 -0.731198
v 1.166975 -0.002921 -0.680740
v 0.355365 -1.841106 -0.709187
v 0.470335 -1.970896 -0.655900
v 0.355365 -1.841106 -0.709187
v 1.166975 -0.002921 -0.680740
v 1.295447 -0.002356 -0.630418
v 0.470335 -1.972112 -0.764044
v 0.470335 -1.970896 -0.655900
v 1.295447 -0.002356 -0.630418
v 1.318905 -0.003488 -0.731198
v 1.318905 0.016970 1.089661
v 0.470335 -1.950393 1.168913
v 0.355365 -1.820662 1.110308
v 1.166975 0.016403 1.039203
v 1.295447 0.015838 0.988881
v 1.166975 0.016403 1.039203
v 0.355365 -1.820662 1.110308
v 0.470335 -1.951608 1.060769
v 1.318905 0.016970 1.089661
v 1.295447 0.015838 0.988881
v 0.470335 -1.951608 1.060769
v 0.470335 -1.950393 1.168913
v -0.470292 -1.972112 -0.764044
v -0.355322 -1.841106 -0.709187
v -1.166932 -0.002921 -0.680740
v -1.318861 -0.003488 -0.731198
v -0.470292 -1.970896 -0.655900
v -1.295540 -0.002356 -0.630418
v -1.166932 -0.002921 -0.680740
v -0.355322 -1.841106 -0.709187
v -0.470292 -1.972112 -0.764044
v -1.318861 -0.003488 -0.731198
v -1.295540 -0.002356 -0.630418
v -0.470292 -1.970896 -0.655900
v -1.318861 0.016970 1.089661
v -1.166932 0.016403 1.039203
v -0.355322 -1.820662 1.110308
v -0.470292 -1.950393 1.168913
v -1.295540 0.015838 0.988881
v -0.470292 -1.951608 1.060769
v -0.355322 -1.820662 1.110308
v -1.166932 0.016403 1.039203
v -1.318861 0.016970 1.089661
v -0.470292 -1.950393 1.168913
v -0.470292 -1.951608 1.060769
v -1.295540 0.015838 0.988881
v -3.360092 -2.954193 -2.578872
v -1.066282 -2.939408 -1.263005
v -0.896759 -2.944436 -1.710446
v -3.110512 -2.959201 -3.024541
v -3.110512 -2.959201 -3.024541
v -0.896759 -2.944436 -1.710446
v -0.896759 -2.733330 -1.712818
v -3.110512 -2.748095 -3.026913
v -1.066282 -2.939408 -1.263005
v -3.360092 -2.954193 -2.578872
v -3.360092 -2.743087 -2.581244
v -1.066282 -2.728302 -1.265376
v 3.455193 -2.954009 -2.562507
v 3.264940 -2.958842 -2.992629
v 0.974540 -2.944436 -1.710446
v 1.144063 -2.939408 -1.263005
v 3.264940 -2.958842 -2.992629
v 3.264940 -2.747736 -2.995001
v 0.974540 -2.733330 -1.712818
v 0.974540 -2.944436 -1.710446
v 1.144063 -2.939408 -1.263005
v 1.144063 -2.728302 -1.265376
v 3.455193 -2.742903 -2.564879
v 3.455193 -2.954009 -2.562507
v 3.146288 -3.016964 2.128267
v 0.988996 -3.027705 1.172289
v 0.867616 -3.022427 1.642095
v 2.808470 -3.012696 2.508203
v 2.808470 -3.012696 2.508203
v 0.867616 -3.022427 1.642095
v 0.867616 -2.811321 1.639723
v 2.808470 -2.801589 2.505831
v 0.988996 -3.027705 1.172289
v 3.146288 -3.016964 2.128267
v 3.146288 -2.805858 2.125895
v 0.988996 -2.816599 1.169917
v -3.144881 -3.016295 2.187862
v -2.807062 -3.012026 2.567799
v -0.866345 -3.021757 1.701691
v -0.987589 -3.027036 1.231884
v -2.807062 -3.012026 2.567799
v -2.807062 -2.800920 2.565427
v -0.866345 -2.810651 1.699319
v -0.866345 -3.021757 1.701691
v -0.987589 -3.027036 1.231884
v -0.987589 -2.815930 1.229512
v -3.144881 -2.805189 2.185490
v -3.144881 -3.016295 2.187862
v 3.345815 -3.250033 2.530919
v 3.345815 -2.774498 2.525576
v 3.218434 -2.780410 1.999448
v 3.218434 -3.255944 2.004791
v 2.833019 -2.773061 2.653495
v 2.833019 -3.248595 2.658838
v 2.705501 -3.254507 2.132709
v 2.705501 -2.778973 2.127366
v 2.833019 -2.773061 2.653495
v 2.833019 -3.248595 2.658838
v 3.218434 -2.780410 1.999448
v 3.218434 -3.255944 2.004791
v 2.833019 -3.248595 2.658838
v 3.345815 -3.250033 2.530919
v 3.218434 -3.255944 2.004791
v 2.705501 -3.254507 2.132709
v 3.744732 -3.161126 0.526205
v 3.508519 -3.112735 0.754388
v 3.770509 -3.153270 0.849090
v 2.489472 -3.076804 4.025179
v 2.235665 -3.118195 3.934399
v 2.276716 -3.119643 4.169689
v 3.081779 -3.307054 -2.544083
v 3.081779 -2.676054 -2.551173
v 3.585984 -2.673837 -2.353841
v 3.585984 -3.304837 -2.346751
v 3.271214 -2.681598 -3.044572
v 3.271214 -3.312598 -3.037483
v 3.775282 -3.310381 -2.840150
v 3.775282 -2.679381 -2.847240
v 3.271214 -2.681598 -3.044572
v 3.271214 -3.312598 -3.037483
v 3.585984 -2.673837 -2.353841
v 3.585984 -3.304837 -2.346751
v 3.271214 -3.312598 -3.037483
v 3.081779 -3.307054 -2.544083
v 3.585984 -3.304837 -2.346751
v 3.775282 -3.310381 -2.840150
v -3.423782 -3.249524 2.576195
v -3.423782 -2.773990 2.570852
v -2.938807 -2.771287 2.811415
v -2.938807 -3.246821 2.816758
v -3.192206 -2.779327 2.095863
v -3.192206 -3.254861 2.101206
v -2.707231 -3.252160 2.341633
v -2.707231 -2.776625 2.336290
v -3.192206 -2.779327 2.095863
v -3.192206 -3.254861 2.101206
v -2.938807 -2.771287 2.811415
v -2.938807 -3.246821 2.816758
v -3.192206 -3.254861 2.101206
v -3.423782 -3.249524 2.576195
v -2.938807 -3.246821 2.816758
v -2.707231 -3.252160 2.341633
v -3.573529 -3.311611 -2.949658
v -3.573529 -2.680611 -2.956748
v -3.400597 -2.674847 -2.443711
v -3.400597 -3.305847 -2.436621
v -3.073689 -2.682545 -3.128851
v -3.073689 -3.313545 -3.121761
v -2.900893 -3.307781 -2.608724
v -2.900893 -2.676781 -2.615814
v -3.073689 -2.682545 -3.128851
v -3.073689 -3.313545 -3.121761
v -3.400597 -2.674847 -2.443711
v -3.400597 -3.305847 -2.436621
v -3.073689 -3.313545 -3.121761
v -3.573529 -3.311611 -2.949658
v -3.400597 -3.305847 -2.436621
v -2.900893 -3.307781 -2.608724
v 0.841158 -3.073480 1.783970
v 0.841158 -1.906668 1.770860
v 1.233120 -1.910865 1.397333
v 1.233120 -3.077677 1.410443
v 0.474018 -1.910940 1.390650
v 0.474018 -3.077752 1.403760
v 0.865980 -3.081949 1.030233
v 0.865980 -1.915137 1.017123
v 0.474018 -1.910940 1.390650
v 0.474018 -3.077752 1.403760
v 1.233120 -1.910865 1.397333
v 1.233120 -3.077677 1.410443
v 0.474018 -3.077752 1.403760
v 0.841158 -3.073480 1.783970
v 1.233120 -3.077677 1.410443
v 0.865980 -3.081949 1.030233
v -0.848207 -3.072812 1.843428
v -0.848207 -1.906000 1.830318
v -0.456381 -1.910195 1.456928
v -0.456381 -3.077007 1.470038
v -1.215347 -1.910271 1.450245
v -1.215347 -3.077082 1.463356
v -0.823522 -3.081279 1.089829
v -0.823522 -1.914467 1.076719
v -1.215347 -1.910271 1.450245
v -1.215347 -3.077082 1.463356
v -0.456381 -1.910195 1.456928
v -0.456381 -3.077007 1.470038
v -1.215347 -3.077082 1.463356
v -0.848207 -3.072812 1.843428
v -0.456381 -3.077007 1.470038
v -0.823522 -3.081279 1.089829
v 0.884664 -3.104727 -0.997094
v 0.884664 -1.937916 -1.010204
v 1.276626 -1.942112 -1.383732
v 1.276626 -3.108924 -1.370622
v 0.517524 -1.942188 -1.390414
v 0.517524 -3.108999 -1.377304
v 0.909485 -3.113194 -1.750694
v 0.909485 -1.946383 -1.763804
v 0.517524 -1.942188 -1.390414
v 0.517524 -3.108999 -1.377304
v 1.276626 -1.942112 -1.383732
v 1.276626 -3.108924 -1.370622
v 0.517524 -3.108999 -1.377304
v 0.884664 -3.104727 -0.997094
v 1.276626 -3.108924 -1.370622
v 0.909485 -3.113194 -1.750694
v -0.906851 -3.105818 -1.094193
v -0.906851 -1.939007 -1.107303
v -0.514889 -1.943202 -1.480693
v -0.514889 -3.110013 -1.467583
v -1.273991 -1.943277 -1.487375
v -1.273991 -3.110088 -1.474265
v -0.882029 -3.114285 -1.847792
v -0.882029 -1.947474 -1.860902
v -1.273991 -1.943277 -1.487375
v -1.273991 -3.110088 -1.474265
v -0.514889 -1.943202 -1.480693
v -0.514889 -3.110013 -1.467583
v -1.273991 -3.110088 -1.474265
v -0.906851 -3.105818 -1.094193
v -0.514889 -3.110013 -1.467583
v -0.882029 -3.114285 -1.847792
v -3.812608 -3.160627 0.570662
v -3.818063 -3.111111 0.898944
v -3.566165 -3.154039 0.780630
v -2.225666 -3.077849 3.932172
v -2.469653 -3.116923 4.047589
v -2.274354 -3.119473 4.184826
v 2.337542 -3.132145 -4.457018
v 2.372047 -3.082513 -4.130511
v 2.607579 -3.125774 -4.278418
v 4.320810 -3.051811 -1.313025
v 4.092507 -3.090424 -1.168698
v 4.303081 -3.093388 -1.056143
v -2.252533 -3.133550 -4.582073
v -2.512750 -3.085333 -4.381575
v -2.262898 -3.125550 -4.258508
v -3.888845 -3.051039 -1.244292
v -4.131060 -3.092605 -1.362758
v -4.116331 -3.094155 -1.124466
vt 0.741829 0.536717
vt 0.871117 0.536717
vt 0.871117 0.465754
vt 0.741829 0.465754
vt 0.678643 0.520191
vt 0.678643 0.382154
vt 0.919722 0.382154
vt 0.919722 0.524080
vt 1.171494 0.687391
vt 1.171494 0.804043
vt 1.898620 0.804043
vt 1.898620 0.687391
vt 1.925838 0.996517
vt 1.925838 0.861396
vt 1.188992 0.860424
vt 1.188992 0.996517
vt 0.170238 0.689336
vt 0.899308 0.689336
vt 0.898336 0.804043
vt 0.170238 0.804043
vt 1.128722 0.146908
vt 1.160801 0.137187
vt 1.160801 0.623233
vt 1.128722 0.602819
vt 1.079145 0.100247
vt 1.079145 0.547410
vt 1.114141 0.564908
vt 1.114141 0.090526
vt 1.066508 0.051642
vt 1.066508 0.520191
vt 1.041233 0.520191
vt 1.041233 0.032201
vt 1.128722 0.602819
vt 1.160801 0.623233
vt 1.160801 0.137187
vt 1.128722 0.146908
vt 1.079145 0.547410
vt 1.079145 0.100247
vt 1.114141 0.090526
vt 1.114141 0.564908
vt 1.066508 0.520191
vt 1.066508 0.051642
vt 1.041233 0.032201
vt 1.041233 0.520191
vt 0.128438 0.146908
vt 0.128438 0.602819
vt 0.160517 0.623233
vt 0.160517 0.137187
vt 1.079145 0.100247
vt 1.114141 0.090526
vt 1.114141 0.564908
vt 1.079145 0.547410
vt 0.066224 0.051642
vt 0.040949 0.032201
vt 0.040949 0.520191
vt 0.066224 0.520191
vt 1.128722 0.602819
vt 1.128722 0.146908
vt 1.160801 0.137187
vt 1.160801 0.623233
vt 0.079833 0.547410
vt 0.114828 0.564908
vt 0.114828 0.090526
vt 0.078861 0.100247
vt 1.066508 0.520191
vt 1.041233 0.520191
vt 1.041233 0.032201
vt 1.066508 0.051642
vt 1.564220 0.047754
vt 1.564220 0.138159
vt 1.995829 0.138159
vt 1.995829 0.047754
vt 1.564220 0.005954
vt 1.564220 0.047754
vt 1.995829 0.047754
vt 1.995829 0.005954
vt 1.995829 0.178987
vt 1.995829 0.138159
vt 1.564220 0.138159
vt 1.564220 0.178987
vt 1.564220 0.047754
vt 1.995829 0.047754
vt 1.995829 0.138159
vt 1.564220 0.138159
vt 1.564220 0.005954
vt 1.995829 0.005954
vt 1.995829 0.047754
vt 1.564220 0.047754
vt 1.995829 0.178987
vt 1.564220 0.178987
vt 1.564220 0.138159
vt 1.995829 0.138159
vt 1.564220 0.047754
vt 1.564220 0.138159
vt 1.995829 0.138159
vt 1.995829 0.047754
vt 1.564220 0.005954
vt 1.564220 0.047754
vt 1.995829 0.047754
vt 1.995829 0.005954
vt 1.995829 0.178987
vt 1.995829 0.138159
vt 1.564220 0.138159
vt 1.564220 0.178987
vt 0.563936 0.047754
vt 0.995545 0.047754
vt 0.995545 0.138159
vt 0.563936 0.138159
vt 0.563936 0.005954
vt 0.995545 0.005954
vt 0.995545 0.047754
vt 0.563936 0.047754
vt 0.995545 0.178987
vt 0.563936 0.178987
vt 0.563936 0.138159
vt 0.995545 0.138159
vt 0.140103 0.064280
vt 0.213010 0.064280
vt 0.213010 0.118717
vt 0.140103 0.118717
vt 0.283973 0.064280
vt 0.283973 0.118717
vt 0.140103 0.064280
vt 0.213010 0.064280
vt 0.213010 0.118717
vt 0.140103 0.118717
vt 0.283973 0.064280
vt 0.283973 0.118717
vt 0.420066 0.371461
vt 0.277168 0.369517
vt 0.278140 0.230508
vt 0.421038 0.231480
vt 0.618373 0.323829
vt 0.618373 0.352019
vt 0.598931 0.337438
vt 0.853619 0.334522
vt 0.853619 0.361740
vt 0.867229 0.350075
vt 0.140103 0.064280
vt 0.213010 0.064280
vt 0.213010 0.118717
vt 0.140103 0.118717
vt 0.283973 0.064280
vt 0.283973 0.118717
vt 0.140103 0.064280
vt 0.213010 0.064280
vt 0.213010 0.118717
vt 0.140103 0.118717
vt 0.283973 0.064280
vt 0.283973 0.118717
vt 0.420066 0.371461
vt 0.277168 0.369517
vt 0.278140 0.230508
vt 0.421038 0.231480
vt 0.140103 0.064280
vt 0.213010 0.064280
vt 0.213010 0.118717
vt 0.140103 0.118717
vt 0.283973 0.064280
vt 0.283973 0.118717
vt 0.140103 0.064280
vt 0.213010 0.064280
vt 0.213010 0.118717
vt 0.140103 0.118717
vt 0.283973 0.064280
vt 0.283973 0.118717
vt 0.420066 0.371461
vt 0.277168 0.369517
vt 0.278140 0.230508
vt 0.421038 0.231480
vt 0.140103 0.064280
vt 0.213010 0.064280
vt 0.213010 0.118717
vt 0.140103 0.118717
vt 0.283973 0.064280
vt 0.283973 0.118717
vt 0.140103 0.064280
vt 0.213010 0.064280
vt 0.213010 0.118717
vt 0.140103 0.118717
vt 0.283973 0.064280
vt 0.283973 0.118717
vt 0.420066 0.371461
vt 0.277168 0.369517
vt 0.278140 0.230508
vt 0.421038 0.231480
vt 0.363684 0.008870
vt 0.457005 0.008870
vt 0.457005 0.155656
vt 0.363684 0.155656
vt 0.546438 0.008870
vt 0.546438 0.155656
vt 0.363684 0.008870
vt 0.457005 0.008870
vt 0.457005 0.155656
vt 0.363684 0.155656
vt 0.546438 0.008870
vt 0.546438 0.155656
vt 0.420066 0.371461
vt 0.277168 0.369517
vt 0.278140 0.230508
vt 0.421038 0.231480
vt 0.363684 0.008870
vt 0.457005 0.008870
vt 0.457005 0.155656
vt 0.363684 0.155656
vt 0.546438 0.008870
vt 0.546438 0.155656
vt 0.363684 0.008870
vt 0.457005 0.008870
vt 0.457005 0.155656
vt 0.363684 0.155656
vt 0.546438 0.008870
vt 0.546438 0.155656
vt 0.420066 0.371461
vt 0.277168 0.369517
vt 0.278140 0.230508
vt 0.421038 0.231480
vt 0.363684 0.008870
vt 0.457005 0.008870
vt 0.457005 0.155656
vt 0.363684 0.155656
vt 0.546438 0.008870
vt 0.546438 0.155656
vt 0.363684 0.008870
vt 0.457005 0.008870
vt 0.457005 0.155656
vt 0.363684 0.155656
vt 0.546438 0.008870
vt 0.546438 0.155656
vt 0.420066 0.371461
vt 0.277168 0.369517
vt 0.278140 0.230508
vt 0.421038 0.231480
vt 0.363684 0.008870
vt 0.457005 0.008870
vt 0.457005 0.155656
vt 0.363684 0.155656
vt 0.546438 0.008870
vt 0.546438 0.155656
vt 0.363684 0.008870
vt 0.457005 0.008870
vt 0.457005 0.155656
vt 0.363684 0.155656
vt 0.546438 0.008870
vt 0.546438 0.155656
vt 0.420066 0.371461
vt 0.277168 0.369517
vt 0.278140 0.230508
vt 0.421038 0.231480
vt 0.618373 0.323829
vt 0.618373 0.352019
vt 0.598931 0.337438
vt 0.853619 0.334522
vt 0.853619 0.361740
vt 0.867229 0.350075
vt 0.618373 0.323829
vt 0.618373 0.352019
vt 0.598931 0.337438
vt 0.853619 0.334522
vt 0.853619 0.361740
vt 0.867229 0.350075
vt 0.618373 0.323829
vt 0.618373 0.352019
vt 0.598931 0.337438
vt 0.853619 0.334522
vt 0.853619 0.361740
vt 0.867229 0.350075
vn -0.7020 -0.0117 0.7121
vn 0.7018 -0.0117 0.7123
vn -0.7098 -0.0276 -0.7038
vn -0.7177 -0.0275 -0.6958
vn 0.7175 -0.0275 -0.6960
vn 0.7096 -0.0276 -0.7040
vn 0.7096 -0.0277 -0.7040
vn 0.0038 -0.9999 0.0116
vn -0.7098 -0.0277 -0.7038
vn -0.9137 0.3969 0.0869
vn -0.3020 0.1422 -0.9426
vn -0.9137 0.4032 -0.0500
vn -0.9137 0.3970 0.0869
vn -0.9137 0.4033 -0.0500
vn -0.3334 0.1319 0.9335
vn -0.3334 0.1320 0.9335
vn 0.9135 -0.3869 0.1256
vn -0.9137 0.4043 0.0409
vn -0.3020 0.1712 0.9378
vn -0.3021 0.1712 0.9378
vn -0.9137 0.3949 -0.0958
vn -0.9137 0.4042 0.0410
vn -0.3256 0.1031 -0.9399
vn 0.9135 -0.3896 -0.1169
vn 0.9135 0.3970 0.0889
vn 0.9135 0.4032 -0.0540
vn 0.3018 0.1422 -0.9427
vn 0.3332 0.1320 0.9336
vn 0.3332 0.1319 0.9336
vn -0.9137 -0.3869 0.1240
vn -0.9137 -0.3869 0.1241
vn 0.9135 0.4043 0.0450
vn 0.9135 0.3949 -0.0978
vn 0.3018 0.1712 0.9379
vn 0.3253 0.1031 -0.9400
vn 0.3253 0.1030 -0.9400
vn -0.9137 -0.3896 -0.1153
vn 0.5136 -0.0058 -0.8580
vn 0.5135 -0.0058 -0.8580
vn -0.4981 0.0135 0.8670
vn -0.4902 -0.0060 -0.8716
vn 0.4900 0.0136 0.8716
vn -0.4040 0.0141 0.9147
vn 0.4038 -0.0065 -0.9148
vn 0.4038 0.0141 0.9147
vn -0.4040 -0.0065 -0.9147
vn 0.5214 -0.0058 -0.8533
vn 0.8586 0.0096 0.5125
vn 0.7018 -0.5718 0.4250
vn 0.4195 -0.5844 -0.6947
vn -0.5216 0.0134 0.8531
vn -0.4197 -0.5686 0.7075
vn -0.8588 -0.0019 -0.5123
vn -0.7020 -0.5812 -0.4117
vn -0.4197 -0.5686 0.7076
vn 0.5214 -0.0057 -0.8533
vn 0.4194 -0.5844 -0.6947
vn 0.7018 -0.5718 0.4249
vn -0.7020 -0.5812 -0.4116
vn -0.0744 -0.9972 0.0112
vn -0.0666 -0.9977 0.0112
vn -0.1687 -0.9837 0.0627
vn 0.0586 -0.9982 0.0112
vn 0.0664 -0.9977 0.0112
vn 0.1763 -0.9843 0.0048
vn -0.9137 0.0084 0.4062
vn -0.7491 -0.5728 0.3328
vn 0.3332 -0.5681 0.7525
vn -0.4040 -0.0064 -0.9148
vn -0.3334 -0.5849 -0.7395
vn 0.9135 -0.0007 -0.4068
vn 0.7488 -0.5801 -0.3205
vn -0.3334 -0.5849 -0.7394
vn 0.3331 -0.5681 0.7525
vn -0.7490 -0.5728 0.3329
vn 0.7488 -0.5802 -0.3205
vn 0.3254 0.0145 0.9455
vn -0.9451 0.0075 0.3267
vn -0.7726 -0.5735 0.2724
vn 0.2626 -0.5678 0.7802
vn -0.3255 -0.0068 -0.9455
vn -0.2628 -0.5852 -0.7671
vn -0.3256 -0.0068 -0.9455
vn 0.9449 0.0002 -0.3274
vn 0.7724 -0.5795 -0.2601
vn 0.3253 0.0145 0.9455
vn 0.2626 -0.5678 0.7801
vn -0.2629 -0.5852 -0.7671
vn 0.7723 -0.5795 -0.2602
vn -0.4432 0.0139 0.8963
vn -0.8980 -0.0012 -0.4399
vn -0.7333 -0.5805 -0.3538
vn -0.3569 -0.5683 0.7414
vn 0.4430 -0.0062 -0.8965
vn 0.3567 -0.5847 -0.7286
vn 0.8978 0.0087 0.4403
vn 0.7331 -0.5724 0.3672
vn 0.3567 -0.5848 -0.7286
vn -0.3569 -0.5682 0.7414
vn 0.7332 -0.5724 0.3671
vn 0.9998 0.0041 0.0204
vn -0.0197 0.0150 0.9997
vn -0.0197 -0.5673 0.8233
vn 0.8179 -0.5753 0.0064
vn -1.0000 0.0039 0.0003
vn -0.8179 -0.5753 0.0065
vn -1.0000 0.0038 0.0003
vn 0.0195 -0.0074 -0.9998
vn 0.0195 -0.5856 -0.8103
vn -0.8179 -0.5753 0.0064
vn 0.8179 -0.5754 0.0065
vn 0.8178 -0.5754 0.0064
vn 0.0195 -0.5857 -0.8103
vn 0.9998 0.0041 0.0203
vn -0.0197 0.0151 0.9997
vn -1.0000 0.0039 0.0002
vn -0.8180 -0.5752 0.0064
vn 0.0193 -0.5856 -0.8103
vn -1.0000 0.0038 0.0002
vn 0.0194 -0.5857 -0.8103
vn 0.8179 -0.5753 0.0065
vn -0.0196 -0.5673 0.8233
vn 0.8178 -0.5754 0.0065
vn -0.0432 -0.9990 0.0112
vn -0.0981 -0.9826 0.1577
vn 0.0273 -0.9996 0.0112
vn 0.0352 -0.9993 0.0112
vn 0.0901 -0.9859 -0.1407
vn -0.0354 -0.9993 0.0112
vn -0.0824 -0.9825 0.1671
vn 0.0665 -0.9861 -0.1523
vn -0.1692 -0.9836 0.0627
vn 0.0742 -0.9972 0.0112
usemtl PickUp_UAV_D
s 1
f 357/355/180 356/356/181 355/357/181
f 358/358/180 357/355/180 355/357/181
f 361/359/182 360/360/183 359/361/184
f 362/362/185 361/359/182 359/361/184
f 365/363/181 364/364/181 363/365/186
f 366/366/184 365/363/181 363/365/186
f 369/367/187 368/368/187 367/369/187
f 370/370/187 369/367/187 367/369/187
f 373/371/180 372/372/183 371/373/188
f 374/374/180 373/371/180 371/373/188
f 377/375/189 376/376/190 375/377/190
f 378/378/191 377/375/189 375/377/190
f 381/379/192 380/380/193 379/381/194
f 382/382/195 381/379/192 379/381/194
f 385/383/196 384/384/196 383/385/196
f 386/386/196 385/383/196 383/385/196
f 389/387/197 388/388/198 387/389/199
f 390/390/200 389/387/197 387/389/199
f 393/391/201 392/392/200 391/393/202
f 394/394/202 393/391/201 391/393/202
f 397/395/203 396/396/203 395/397/203
f 398/398/203 397/395/203 395/397/203
f 401/399/204 400/400/205 399/401/206
f 402/402/206 401/399/204 399/401/206
f 405/403/204 404/404/207 403/405/208
f 406/406/205 405/403/204 403/405/208
f 409/407/209 408/408/209 407/409/210
f 410/410/210 409/407/209 407/409/210
f 413/411/211 412/412/212 411/413/213
f 414/414/213 413/411/211 411/413/213
f 417/415/211 416/416/214 415/417/215
f 418/418/212 417/415/211 415/417/215
f 421/419/216 420/420/216 419/421/216
f 422/422/216 421/419/216 419/421/216
f 425/423/187 424/424/187 423/425/187
f 426/426/187 425/423/187 423/425/187
f 429/427/217 428/428/217 427/429/217
f 430/430/218 429/427/217 427/429/217
f 433/431/219 432/432/219 431/433/219
f 434/434/219 433/431/219 431/433/219
f 437/435/187 436/436/187 435/437/187
f 438/438/187 437/435/187 435/437/187
f 441/439/220 440/440/220 439/441/220
f 442/442/220 441/439/220 439/441/220
f 445/443/221 444/444/221 443/445/221
f 446/446/221 445/443/221 443/445/221
f 449/447/187 448/448/187 447/449/187
f 450/450/187 449/447/187 447/449/187
f 453/451/222 452/452/222 451/453/222
f 454/454/222 453/451/222 451/453/222
f 457/455/223 456/456/223 455/457/223
f 458/458/223 457/455/223 455/457/223
f 461/459/187 460/460/187 459/461/187
f 462/462/187 461/459/187 459/461/187
f 465/463/224 464/464/224 463/465/224
f 466/466/224 465/463/224 463/465/224
f 469/467/225 468/468/225 467/469/225
f 470/470/225 469/467/225 467/469/225
f 473/471/226 472/472/227 471/473/228
f 474/474/229 473/471/226 471/473/228
f 472/472/227 475/475/230 471/473/228
f 475/475/230 476/476/231 471/473/228
f 479/477/230 478/478/232 477/479/233
f 480/480/234 479/477/230 477/479/233
f 478/478/232 481/481/235 477/479/233
f 481/481/235 482/482/236 477/479/233
f 485/483/236 484/484/237 483/485/231
f 486/486/238 485/483/236 483/485/231
f 489/487/239 488/488/240 487/489/241
f 488/488/240 489/487/239 490/490/242
f 491/491/243 488/488/240 490/490/242
f 492/492/244 491/491/243 490/490/242
f 495/493/224 494/494/245 493/495/246
f 496/496/247 495/493/224 493/495/246
f 494/494/245 497/497/248 493/495/246
f 497/497/248 498/498/249 493/495/246
f 501/499/248 500/500/250 499/501/251
f 502/502/252 501/499/248 499/501/251
f 500/500/250 503/503/224 499/501/251
f 503/503/224 504/504/247 499/501/251
f 507/505/253 506/506/254 505/507/252
f 508/508/255 507/505/253 505/507/252
f 511/509/256 510/510/257 509/511/258
f 512/512/259 511/509/256 509/511/258
f 510/510/257 513/513/260 509/511/258
f 513/513/260 514/514/261 509/511/258
f 517/515/262 516/516/263 515/517/264
f 518/518/261 517/515/262 515/517/264
f 516/516/263 519/519/265 515/517/264
f 519/519/265 520/520/266 515/517/264
f 523/521/259 522/522/258 521/523/267
f 524/524/268 523/521/259 521/523/267
f 527/525/269 526/526/270 525/527/271
f 528/528/272 527/525/269 525/527/271
f 526/526/270 529/529/273 525/527/271
f 529/529/273 530/530/274 525/527/271
f 533/531/273 532/532/275 531/533/276
f 534/534/277 533/531/273 531/533/276
f 532/532/275 535/535/269 531/533/276
f 535/535/269 536/536/278 531/533/276
f 539/537/278 538/538/271 537/539/277
f 540/540/279 539/537/278 537/539/277
f 543/541/280 542/542/281 541/543/282
f 544/544/283 543/541/280 541/543/282
f 542/542/281 545/545/284 541/543/282
f 545/545/284 546/546/285 541/543/282
f 549/547/286 548/548/287 547/549/288
f 550/550/289 549/547/286 547/549/288
f 548/548/287 551/551/280 547/549/288
f 551/551/280 552/552/290 547/549/288
f 555/553/291 554/554/282 553/555/285
f 556/556/292 555/553/291 553/555/285
f 559/557/293 558/558/294 557/559/282
f 560/560/283 559/557/293 557/559/282
f 558/558/294 561/561/295 557/559/282
f 561/561/295 562/562/296 557/559/282
f 565/563/286 564/564/287 563/565/297
f 566/566/285 565/563/286 563/565/297
f 564/564/287 567/567/280 563/565/297
f 567/567/280 568/568/290 563/565/297
f 571/569/291 570/570/282 569/571/285
f 572/572/292 571/569/291 569/571/285
f 575/573/280 574/574/281 573/575/282
f 576/576/283 575/573/280 573/575/282
f 574/574/281 577/577/284 573/575/282
f 577/577/284 578/578/285 573/575/282
f 581/579/298 580/580/287 579/581/299
f 582/582/285 581/579/298 579/581/299
f 580/580/287 583/583/280 579/581/299
f 583/583/280 584/584/300 579/581/299
f 587/585/290 586/586/282 585/587/289
f 588/588/292 587/585/290 585/587/289
f 591/589/280 590/590/281 589/591/301
f 592/592/302 591/589/280 589/591/301
f 590/590/281 593/593/295 589/591/301
f 593/593/295 594/594/296 589/591/301
f 597/595/286 596/596/287 595/597/288
f 598/598/289 597/595/286 595/597/288
f 596/596/287 599/599/280 595/597/288
f 599/599/280 600/600/290 595/597/288
f 603/601/302 602/602/282 601/603/289
f 604/604/292 603/601/302 601/603/289
f 607/605/303 606/606/303 605/607/304
f 606/606/303 607/605/303 608/608/305
f 609/609/306 606/606/303 608/608/305
f 610/610/307 609/609/306 608/608/305
f 613/611/308 612/612/308 611/613/309
f 612/612/308 613/611/308 614/614/305
f 615/615/305 612/612/308 614/614/305
f 616/616/310 615/615/305 614/614/305
f 619/617/239 618/618/240 617/619/311
f 618/618/240 619/617/239 620/620/243
f 621/621/312 618/618/240 620/620/243
f 622/622/244 621/621/312 620/620/243
